<?xml version="1.0" encoding="UTF-8"?>
<svg version="1.1" viewBox="0 0 2048 2048" width="512" height="512" xmlns="http://www.w3.org/2000/svg">
<path transform="translate(929,102)" d="m0 0h188l15 2 9 4 8 6 7 7 8 16 4 15 28 161 6 34 24 7 41 14 27 11 24 11 30 15 19 11 6 4 5-1 16-11 40-28 17-12 14-10 19-13 18-13 20-14 18-13 14-8 9-4 9-2h11l11 3 9 6 146 146 5 8 3 12-1 13-4 12-7 13-14 20-13 19-11 15-28 40-12 17-10 14-12 17-14 20-3 4 1 7 8 13 15 28 12 25 13 31 11 30 12 40 1 2 65 11 121 21 22 5 16 8 10 9 6 9 3 7 1 5 1 27-1 178-4 13-8 11-8 7-12 6-19 5-39 7-150 26-5 2-7 26-9 29-12 33-12 28-14 29-14 25-1 2 5 9 14 20 22 33 8 11 8 12 17 25 16 23 24 36 8 15 3 9 1 12-2 11-6 11-147 147-12 6-4 1h-16l-11-3-17-9-17-12-63-44-43-30-20-14-16-11-5-2-27 14-16 8-24 11-28 11-26 9-35 11-19 5h-2l-1 11-14 82-12 69-7 38-6 18-7 11-7 7-9 5-8 3-6 1h-202l-13-4-9-6-7-7-6-10-5-13-6-29-22-128-8-47-53-16-34-12-29-12-28-13-22-11-10-6-4 1-40 28-16 11-17 12-19 13-18 13-16 11-20 14-18 12-16 8-8 2h-16l-9-3-8-5-146-146-5-9-3-10v-10l3-12 8-16 22-33 8-11 16-24 14-20 22-33 8-11 24-36-1-5-14-26-8-16-9-19-11-27-13-37-10-35-3-10-27-5-139-24-38-7-15-6-10-7-9-10-5-11-2-10v-197l3-13 6-10 11-11 14-7 15-4 45-8 127-22 24-4 11-36 11-32 13-31 16-33 11-21 11-19-1-5-14-20-72-102-14-20-13-18-8-13-6-15-1-6v-10l2-9 6-10 9-10 135-135 9-6 7-3 5-1h11l13 3 17 9 18 13 19 13 12 9 19 13 18 13 19 13 18 13 20 14 17 12 6 4 5-1 35-20 16-8 31-14 28-11 36-12 21-6 3-2 29-167 6-33 5-15 7-11 6-7 11-7 9-3zm77 730-24 4-22 6-17 7-16 8-15 10-13 10-15 14-7 8-10 13-12 19-8 17-7 19-5 21-3 21v30l5 31 7 23 11 24 10 16 10 13 9 10 13 13 14 11 14 9 21 11 22 8 23 5 22 3h23l32-5 18-5 20-8 19-10 17-12 14-12 12-12 11-14 7-10 10-17 10-25 6-22 4-28v-24l-4-27-5-20-7-19-10-20-12-18-11-13-10-11-8-7-13-10-16-10-15-8-21-8-18-5-26-4z" fill="#1598F0"/>
<path transform="translate(1006,614)" d="m0 0h35l31 3 32 5 27 6 29 9 25 10 24 11 24 13 14 9 16 11 12 9 14 11 15 14 12 11 7 8 9 9 9 11 12 15 13 19 7 11 10 17 10 19 9 20 9 24 6 18 8 32 4 22 3 21 2 37v12l-1 23-3 27-5 29-6 24-8 25-9 24-14 30-16 28-13 19-12 16-13 16-9 10-28 28-11 9-16 13-19 13-14 9-17 10-16 8-21 10-24 9-29 9-32 7-26 4-21 2-31 1-24-1-35-4-31-6-29-8-26-9-23-10-16-8-21-11-19-12-14-10-13-10-11-9-13-12-28-28-9-11-13-16-15-22-8-13-8-14-12-23-8-19-9-24-7-24-6-25-5-32-2-20-1-18v-25l2-28 4-29 6-28 8-28 9-25 12-27 11-21 10-17 10-15 11-15 10-13 9-10 7-8 14-15 16-15 11-9 16-13 30-20 23-13 29-14 26-10 22-7 28-7 36-6zm0 218-24 4-22 6-17 7-16 8-15 10-13 10-15 14-7 8-10 13-12 19-8 17-7 19-5 21-3 21v30l5 31 7 23 11 24 10 16 10 13 9 10 13 13 14 11 14 9 21 11 22 8 23 5 22 3h23l32-5 18-5 20-8 19-10 17-12 14-12 12-12 11-14 7-10 10-17 10-25 6-22 4-28v-24l-4-27-5-20-7-19-10-20-12-18-11-13-10-11-8-7-13-10-16-10-15-8-21-8-18-5-26-4z" fill="#E5E6E6"/>
<path transform="translate(929,102)" d="m0 0h188l15 2 9 4 8 6 7 7 8 16 4 15 28 161 6 34 24 7 41 14 27 11 24 11 30 15 19 11 6 4 5-1 16-11 40-28 17-12 14-10 19-13 18-13 20-14 18-13 14-8 9-4 9-2h11l11 3 9 6 146 146 5 8 3 12-1 13-4 12-7 13-14 20-13 19-11 15-28 40-12 17-10 14-12 17-14 20-3 4 1 7 8 13 15 28 12 25 13 31 11 30 12 40 1 2 65 11 121 21 22 5 16 8 10 9 6 9 3 7 1 5 1 27-1 178-4 13-8 11-8 7-12 6-19 5-39 7-150 26-5 2-7 26-9 29-12 33-12 28-14 29-14 25-1 2 5 9 14 20 22 33 8 11 8 12 17 25 16 23 24 36 8 15 3 9 1 12-2 11-6 11-147 147-12 6-4 1h-16l-11-3-17-9-17-12-63-44-43-30-20-14-16-11-5-2-27 14-16 8-24 11-28 11-26 9-35 11-19 5h-2l-1 11-14 82-12 69-7 38-6 18-7 11-7 7-9 5-8 3-6 1h-202l-13-4-9-6-7-7-6-10-5-13-6-29-22-128-8-47-53-16-34-12-29-12-28-13-22-11-10-6-4 1-40 28-16 11-17 12-19 13-18 13-16 11-20 14-18 12-16 8-8 2h-16l-9-3-8-5-146-146-5-9-3-10v-10l3-12 8-16 22-33 8-11 16-24 14-20 22-33 8-11 24-36-1-5-14-26-8-16-9-19-11-27-13-37-10-35-3-10-27-5-139-24-38-7-15-6-10-7-9-10-5-11-2-10v-197l3-13 6-10 11-11 14-7 15-4 45-8 127-22 24-4 11-36 11-32 13-31 16-33 11-21 11-19-1-5-14-20-72-102-14-20-13-18-8-13-6-15-1-6v-10l2-9 6-10 9-10 135-135 9-6 7-3 5-1h11l13 3 17 9 18 13 19 13 12 9 19 13 18 13 19 13 18 13 20 14 17 12 6 4 5-1 35-20 16-8 31-14 28-11 36-12 21-6 3-2 29-167 6-33 5-15 7-11 6-7 11-7 9-3zm25 41-29 1-3 8-7 36-17 98-15 86-3 9-48 13-33 11-28 11-28 13-20 10-19 11-31 19-5-1-17-12-20-14-34-24-20-14-18-13-23-16-20-14-18-13-23-15-5-1-138 138 1 5 10 16 11 15 14 20 13 18 11 16 72 102 5 7-1 6-12 19-9 15-12 22-11 22-9 21-11 28-12 36-11 41-3 3-97 17-87 15-37 7-12 3-2 2v194l4 4 15 4 50 9 168 29 6 21 9 34 12 37 13 33 7 16 8 16 13 24 15 24 2 3-1 6-10 14-21 31-13 19-19 28-11 16-21 31-13 19-16 24-8 13 2 5 43 43h2v2h2v2h2v2h2v2h2v2h2v2h2l2 4h2l2 4 16 16h2l2 4h2v2h2v2h2v2h2v2h2v2h2v2h2v2h2v2l8 7 29 29 6-1 14-9 53-37 23-16 19-13 18-13 19-13 23-16 16-11 4-3 5 1 23 13 26 14 19 9 33 14 37 13 31 9 34 9 8 2 5 25 8 47 18 104 8 44 5 16 1 1 11 1 185-1 3-7 6-26 14-81 17-98 4-25 17-4 37-10 35-11 29-11 28-12 21-10 22-12 24-14 5 1 59 41 43 30 17 12 19 13 14 10 23 16 14 9 4 1 12-11 5-6 3-2v-2l4-2 5-6 3-2v-2l4-2v-2l4-2v-2l4-2v-2l4-2v-2l4-2v-2l4-2v-2l4-2v-2l4-2 75-75-1-5-9-15-12-17-8-12-9-13-15-22-16-24-8-11-8-12-11-16-15-22-11-16-10-14 1-6 12-20 10-17 12-23 12-27 10-26 11-33 10-36 6-23v-2l30-5 184-32 17-4 6-3 1-7v-167l-1-22-2-2-25-6-67-12-69-12-63-11-10-2-3-7-9-35-13-40-10-25-12-27-13-26-14-24-14-22-1-6 11-16 11-15 28-40 13-18 13-19 13-18 11-16 13-18 13-19 10-15v-5l-11-12-125-125-4-1-10 6-17 12-16 11-14 10-20 14-11 8-10 7-13 9-17 12-10 7-18 13-16 11-17 12-7 5-6-1-21-13-15-9-28-15-28-13-27-11-38-13-28-8-19-5-3-3-13-73-14-82-9-51-5-23-3-5-65-1z" fill="#302F2F"/>
<path transform="translate(1012,573)" d="m0 0h19l36 2 37 5 28 6 25 7 29 10 30 13 24 12 22 13 21 14 19 14 13 11 14 12 8 8 8 7 12 13 9 10 9 11 13 17 11 16 12 19 14 25 13 27 12 31 9 29 6 26 4 21 4 33 2 31v21l-3 37-5 34-7 31-8 27-10 27-13 29-14 26-14 23-12 17-16 21-12 14-12 13-24 24-11 9-16 13-18 13-17 11-19 11-23 12-21 10-26 10-25 8-22 6-31 6-31 4-26 2h-32l-34-3-32-5-27-6-25-7-29-10-26-11-22-11-21-12-17-11-17-12-18-14-8-7-14-12-26-26-9-11-9-10-8-11-9-12-16-24-12-21-13-25-12-28-12-36-6-23-5-24-4-27-2-23-1-18v-21l2-33 5-36 6-29 7-25 10-29 11-26 14-28 16-27 16-23 13-17 12-14 11-12 5-6 5-5 13-12 12-11 14-11 17-13 24-16 15-9 26-14 25-11 24-9 18-6 30-8 26-5 20-3 23-2zm-6 41-32 3-36 6-32 8-32 11-27 12-20 10-22 13-22 15-14 11-13 11-20 18-8 8-7 8-12 13-13 17-12 17-11 17-14 25-11 23-11 28-9 29-6 26-5 30-2 20-1 17v25l2 29 4 30 6 28 6 22 9 27 13 30 14 27 12 19 13 19 11 14 11 13 9 10 29 29 11 9 15 12 17 12 21 13 30 16 28 12 36 12 28 7 29 5 28 3 30 1 25-1 28-3 29-5 25-6 26-8 24-9 28-13 23-13 19-12 18-13 16-13 14-12 31-31 11-14 12-15 18-27 12-21 8-15 11-25 9-24 8-27 6-28 4-25 2-20 1-23v-12l-2-37-5-34-8-34-6-20-11-29-13-28-12-22-12-19-13-18-13-16-11-13-11-11-6-7-8-7-8-8-11-9-15-12-19-13-19-12-24-13-26-12-27-10-27-8-34-7-29-4-23-2z" fill="#302F2F"/>
<path transform="translate(1e3 791)" d="m0 0h44l28 4 22 6 19 7 21 10 21 13 17 13 13 12 14 14 11 14 12 18 12 22 9 23 6 20 5 28 1 11v36l-3 23-5 23-7 21-8 18-7 14-11 17-10 13-11 13-13 13-11 9-13 10-21 13-23 11-27 9-23 5-22 3h-35l-24-3-26-6-23-8-25-12-19-12-17-13-13-12-11-11-9-11-11-15-9-15-8-15-8-20-6-19-5-24-2-17v-40l4-28 7-27 11-27 9-17 11-17 10-13 9-10 18-18 14-11 13-9 17-10 21-10 24-8 21-5zm4 41-24 4-22 6-17 7-16 8-15 10-13 10-15 14-7 8-10 13-12 19-8 17-7 19-5 21-3 21v30l5 31 7 23 11 24 10 16 10 13 9 10 13 13 14 11 14 9 21 11 22 8 23 5 22 3h23l32-5 18-5 20-8 19-10 17-12 14-12 12-12 11-14 7-10 10-17 10-25 6-22 4-28v-24l-4-27-5-20-7-19-10-20-12-18-11-13-10-11-8-7-13-10-16-10-15-8-21-8-18-5-26-4z" fill="#302F2F"/>
<path transform="translate(1575,332)" d="m0 0 5 2 132 132 3 4-1 7-15 22-13 18-13 19-8 11-14 20-12 17-13 18-11 16-24 34-11 15-1 6 22 36 12 22 11 22 6 14v2h-2l-5-10-1-3v-4l-3-1-1-7h-2v-2l-2-1v-5l-4-1-1-6-4-3v-4h-2l-4-8 1-2h-2v-2l-3-1-2-8-4-2-1-6-2-4-3 1-2-9-3-4v-2h-2v-7h2v-3l-7 4h-2l-2 4-7-1-2-3v-5l-3 1-3-15-5-5-6-12-4-9-3-1-7-14v-2h-2l-1-7-7-4-3-7-1-5-3-3-5-2-2-2-7-2-2-2-3-8-2-1-3-5-2-5 1-7 4-11 3-11h2l1-3-1-4 1-4-2-4-1-9-1-7-5-6-1-4-4-3v-2l-4 1-8-8-4-2-3-5-3-1h-8l-9 1-2-2v-2l-2-1h-8l-10 4h-2v-2l-2-1-1-3 1-3h2v-2l9-9-10 3-5 3h-2l-2 3h-4v2l-8 5-4 1 5-5 16-11 17-12 14-10 20-14 13-9 17-12 18-13 13-9 17-12 19-13 10-7z" fill="#0686DF"/>
<path transform="translate(446,1341)" d="m0 0 5 2 2 7 3 3v4h2l2 4 4 3 1 6 2 3v7l-6 8-6 10-4 7-2 1-4 7-11 17-1 8h-2l1 3 5-2 2-4 5-3 2 1v8l1 4-1 4 2 4 1 6 5 2v8l4 3 5 2v7l6 1 5 8 11 5 2 3 5 1h3l3-1 3 2 6-3 13 2 7 4v2l5 2 2-1 5 5-3 1 1 3 3 1-1 8-2 4 4 2v3l5 1v2h2v2l5 1 3 5v7l3 3 3 6 5 2 6 3v2l7-1 10 1h18l10-3 10-1h3l7 1 3 2h17l1 3 4 2v5l-5 3 1 5 1-2 4 1-4 4-15 10-20 14-46 32-17 12-19 13-17 12-19 13-14 10-14 9-5 3-5-1-34-34-2-1v-2h-2v-2h-2v-2h-2v-2h-2v-2h-2v-2h-2v-2h-2v-2l-4-2v-2l-4-2-16-16v-2l-4-2v-2h-2v-2h-2v-2h-2v-2h-2v-2h-2v-2h-2v-2l-4-2-42-42-1-4 13-21 9-13 11-16 22-33 10-14 22-33 8-11 16-24 14-20 8-12-1-6-9-14-9-15z" fill="#0686DF"/>
<path transform="translate(641,1160)" d="m0 0 3 3 5 12 10 19 8 15 6 10 4 7 12 18v2h2l8 11v2h2l2 5h2l2 5h2l4 5v2h2l6 7v2h2l7 8 15 15 8 7 4 3v2l4 2 12 10 18 13 11 8 20 12 13 7 19 10 16 7 43 14 19 5 7 2 23 6 31 5 25 2h24l31-3 26-4 16-3 18-5 26-7 10-4 7-2 11-5 17-7 19-10 9-5 4-3 7-3 9-6 11-7 14-11 8-6h2v-2h2v-2l7-6 5-5 3-1 2-4h2l2-4h2l1-3 8-7 17-17 10-11 1 4-11 13-9 11-32 32-11 9-16 13-19 13-14 9-17 10-16 8-21 10-24 9-29 9-32 7-26 4-21 2-31 1-24-1-35-4-31-6-29-8-26-9-23-10-16-8-21-11-19-12-14-10-13-10-11-9-13-12-28-28-9-11-13-16-15-22-8-13-8-14-12-23-8-19-4-10v-6z" fill="#FBFBFB"/>
<path transform="translate(815,1132)" d="m0 0h2l8 14 10 15 11 14 12 13 10 10 14 11 14 10 19 11 21 10 25 8 22 5 24 3h35l22-3 23-5 27-9 25-12 19-12 13-10 14-12 13-13 11-14 11-15 5-5 2 1-3 9-8 12-14 18-9 10-5 6-8 7-7 6h-2v2l-4 1v2l-4 1v2l-23 15-17 9-12 5-20 6-24 5-34 4-13 1h-29l-22-5-16-4-19-6-18-8-14-8-10-7-6-4v-2l-4-2-8-6-2-4h-2v-2h-2v-2h-2l-7-8-12-14-7-9-4-4-2-5h-2l-4-7v-2h-2l-8-16-1-4-3-4z" fill="#FBFBFB"/>
<path transform="translate(927,1838)" d="m0 0 4 5 2 9h2l2 8h2l5 5 6 5 2 3 10 3 5 3 17 3 13 3h12l24 3 3 2-9 2-12 1v2l-31 2-9 2v3h29l118 1v1l-185 1-11-1-4-9-2-8v-5l1-3 4-2v-15l-1-2 1-5-1-6v-8h2z" fill="#0686DF"/>
<path transform="translate(746,1580)" d="m0 0 4 1 8 4v2l9 3h3v-3l9 2 5 3 4 2-2 4h-3l7 5 4 1 19 7 5 5 8 3v2l5 2 3 1v2l5 1 13 4 7 2 5 3v2l6 2 4 2v3l-6-2-10-5-21-6-29-10-21-9-24-12-14-9-5-5 2-2 6 4-4-3v-2l-2-1z" fill="#0686DF"/>
<path transform="translate(155,1078)" d="m0 0 4 1 9 14 6 7 8 3 6 4 10 5 6 4 5 2 7 1-1 3-11 1-12-2-2 1-30-3-7-3-4-4v-8l3-5 2-10v-10z" fill="#0686DF"/>
<path transform="translate(283,1105)" d="m0 0h6l8 3 11 2 6 1 5 3 4 1 9 2 3 2v2l6 3v2l3-1 7 3 7 1 9 6 2 4 5 2 10 5-4 1-20-8-14-4-20-6-9-3-10-2-8-4-9-3-7-2-6-7 1-2z" fill="#0686DF"/>
<path transform="translate(1839,1088)" d="m0 0 5 5 1 2h2l1 5-7 6-20 8-17 5-31 8-8 1 4-2 20-7 6-5 12-5 5-2 1-2h2v-2l5-1 1-2 7-7 1 2h3l3-3z" fill="#0686DF"/>
<path transform="translate(409,1181)" d="m0 0 4 5 6 16 3 5 2 7 4 7 8 9 3 13 3 6 4 5 5 10v2h2v4l-4 2-2-1-2-5-4-5-2-5-2-1-6-16v-4h-2l-6-12-3-9-5-11-2-9-4-9z" fill="#0686DF"/>
<path transform="translate(1898,924)" d="m0 0 5 1 1 1 1 22v167l-1 7h-1l-1-112v-79l-2-5z" fill="#0686DF"/>
<path transform="translate(1572,685)" d="m0 0 5 2 3 5v2h2l11 20 6 10 1 8h2l-1 3-5-5-2-5-2-1 1-5-4 1-12-16-6-9-2-4v-5l2 2z" fill="#0687DF"/>
<path transform="translate(1134,201)" d="m0 0h1l13 74 2 12v6l-2-1-3-20-3-16-3-14-2-14-3-16-1-10z" fill="#0686DF"/>
<path transform="translate(1300,428)" d="m0 0 5 1 27 14 22 13 16 10 5 3 5-1 4-3 2 1-2 3-6 3-4-1-14-8-13-8-14-8-11-6-9-5-13-7z" fill="#0686DF"/>
<path transform="translate(1121,201)" d="m0 0 3 3 3 9 1 13 2 9-1 8-2-1-4-15-1-17-2-3z" fill="#0686DF"/>
<path transform="translate(1482,729)" d="m0 0 6 4 7 9 5 4 5 5 4 6-1 2-3-3v-3l-5-2-2-4-4-2-4-4v-3l-8-4z" fill="#0686DF"/>
<path transform="translate(1109,156)" d="m0 0 4 1v2l4 1 2 9-2 5h-3l1-7h-2l-1-4h2l-5-5z" fill="#0686DF"/>
<path transform="translate(1816,1054)" d="m0 0 5 2 5 7 1 5-3-2v-2l-5-2-3-1-1-5z" fill="#0686DF"/>
<path transform="translate(1463,710)" d="m0 0 3 1 2 5 3 1v3l8 2-1 4v-2l-6-1v-2h-2v-3l-4-1-3-5z" fill="#0686DF"/>
<path transform="translate(667,1577)" d="m0 0 4 2 4 5-3 1-4-2h-4l-1-3z" fill="#0686DF"/>
<path transform="translate(923,1887)" d="m0 0 1 4 3 1 1 4-1 2h-4l-1-9z" fill="#1396EE"/>
<path transform="translate(1126,157)" d="m0 0h1l3 15v6h-2l-2-11z" fill="#0686DF"/>
<path transform="translate(436,1323)" d="m0 0 3 2 4 8v2h3v6l-3-3-7-13z" fill="#0686DF"/>
<path transform="translate(1348,1270)" d="m0 0 1 4-5 6-2-4z" fill="#F6F6F6"/>
<path transform="translate(1805,1046)" d="m0 0h4l2 7-1 2h-4v-7z" fill="#0686DF"/>
<path transform="translate(919,1858)" d="m0 0 1 2-2 12h-1l-1-12z" fill="#0686DF"/>
<path transform="translate(1229,1135)" d="m0 0h2v6h-2l-2 4h-2l1-4z" fill="#F5F6F6"/>
<path transform="translate(815,1132)" d="m0 0h2l4 7v2l-4-2-3-4z" fill="#F5F6F6"/>
<path transform="translate(1509,759)" d="m0 0 5 2 5 7-1 2-7-6z" fill="#0686DF"/>
<path transform="translate(1037,286)" d="m0 0 5 5 4 3v4h-2l-2-5-4-2z" fill="#0686DF"/>
</svg>
